<?xml version="1.0" standalone="no"?>
<svg xmlns:xlink="http://www.w3.org/1999/xlink" id="wave" style="transform:rotate(0deg); transition: 0.3s" viewBox="0 0 1440 490" version="1.1" xmlns="http://www.w3.org/2000/svg"><defs><linearGradient id="sw-gradient-0" x1="0" x2="0" y1="1" y2="0"><stop stop-color="rgba(255, 255, 255, 1)" offset="0%"/><stop stop-color="rgba(255, 255, 255, 1)" offset="100%"/></linearGradient></defs><path style="transform:translate(0, 0px); opacity:1" fill="url(#sw-gradient-0)" d="M0,98L34.3,147C68.6,196,137,294,206,302.2C274.3,310,343,229,411,204.2C480,180,549,212,617,212.3C685.7,212,754,180,823,155.2C891.4,131,960,114,1029,155.2C1097.1,196,1166,294,1234,318.5C1302.9,343,1371,294,1440,245C1508.6,196,1577,147,1646,147C1714.3,147,1783,196,1851,212.3C1920,229,1989,212,2057,179.7C2125.7,147,2194,98,2263,65.3C2331.4,33,2400,16,2469,65.3C2537.1,114,2606,229,2674,294C2742.9,359,2811,376,2880,392C2948.6,408,3017,425,3086,375.7C3154.3,327,3223,212,3291,187.8C3360,163,3429,229,3497,285.8C3565.7,343,3634,392,3703,400.2C3771.4,408,3840,376,3909,351.2C3977.1,327,4046,310,4114,261.3C4182.9,212,4251,131,4320,89.8C4388.6,49,4457,49,4526,65.3C4594.3,82,4663,114,4731,138.8C4800,163,4869,180,4903,187.8L4937.1,196L4937.1,490L4902.9,490C4868.6,490,4800,490,4731,490C4662.9,490,4594,490,4526,490C4457.1,490,4389,490,4320,490C4251.4,490,4183,490,4114,490C4045.7,490,3977,490,3909,490C3840,490,3771,490,3703,490C3634.3,490,3566,490,3497,490C3428.6,490,3360,490,3291,490C3222.9,490,3154,490,3086,490C3017.1,490,2949,490,2880,490C2811.4,490,2743,490,2674,490C2605.7,490,2537,490,2469,490C2400,490,2331,490,2263,490C2194.3,490,2126,490,2057,490C1988.6,490,1920,490,1851,490C1782.9,490,1714,490,1646,490C1577.1,490,1509,490,1440,490C1371.4,490,1303,490,1234,490C1165.7,490,1097,490,1029,490C960,490,891,490,823,490C754.3,490,686,490,617,490C548.6,490,480,490,411,490C342.9,490,274,490,206,490C137.1,490,69,490,34,490L0,490Z"/></svg>