<?xml version="1.0" encoding="iso-8859-1"?>
<!-- Uploaded to: SVG Repo, www.svgrepo.com, Generator: SVG Repo Mixer Tools -->
<!DOCTYPE svg PUBLIC "-//W3C//DTD SVG 1.1//EN" "http://www.w3.org/Graphics/SVG/1.1/DTD/svg11.dtd">
<svg height="800px" width="800px" version="1.1" id="Capa_1" xmlns="http://www.w3.org/2000/svg" xmlns:xlink="http://www.w3.org/1999/xlink" 
	 viewBox="0 0 280.918 280.918" xml:space="preserve">
<g>
	<path style="fill:#476B18;" d="M128.131,8.618c-2.035,6.897-6.013,23.229-7.12,48.272c8.705,17.304,14.565,33.222,18.51,46.865
		c0.06-15.778,1.268-34.525,5.163-52.83C141.355,35.517,136.119,20.831,128.131,8.618z"/>
	<path style="fill:#BCA535;" d="M128.131,8.618c7.987,12.213,13.224,26.898,16.553,42.308c0.613-2.881,1.29-5.75,2.042-8.595
		c-3.782-14.304-9.398-27.989-17.624-39.358L126.952,0l-1.333,3.419c-0.116,0.299-6.151,16.331-8.207,46.546
		c1.251,2.331,2.45,4.641,3.6,6.926C122.119,31.848,126.096,15.516,128.131,8.618z"/>
	<path style="fill:#588F27;" d="M143.755,116.027c3.867-18.896,11.715-44.888,27.615-74.138
		c-1.665-16.654-4.454-27.864-6.049-33.271C145.975,38.2,142.735,82.261,143.755,116.027z"/>
	<path style="fill:#F7E967;" d="M139.521,103.756c1.519,5.254,2.75,10.163,3.753,14.69c0.014-0.071,0.026-0.14,0.04-0.211
		c0.141-0.724,0.289-1.462,0.441-2.208c-1.021-33.767,2.22-77.827,21.566-107.409c1.595,5.407,4.384,16.617,6.049,33.271
		c1.074-1.975,2.194-3.97,3.344-5.975c-2.591-21.12-6.783-32.247-6.88-32.496L166.502,0l-2.15,2.973
		c-8.226,11.369-13.842,25.055-17.625,39.358c-0.752,2.845-1.429,5.714-2.042,8.595C140.789,69.231,139.581,87.978,139.521,103.756z
		"/>
	<path style="fill:#507F1D;" d="M94.879,21.014c-1.131,7.259-2.807,22.655-0.972,42.403c0.431,0.557,0.863,1.117,1.299,1.69
		c13.222,17.403,30.685,45.79,43.79,86.586h0.542c0.12-5.562,0.584-12.91,1.821-21.764
		C136.729,102.959,124.813,63.785,94.879,21.014z"/>
	<path style="fill:#CEBA45;" d="M94.879,21.014c29.934,42.771,41.85,81.945,46.48,108.916c-1.237,8.854-1.701,16.202-1.821,21.764
		h4.053c0.557-22.429,6.784-74.947,47.804-134.834c1.23,7.371,3.125,23.164,1.33,43.499c-0.319,3.613-0.773,7.481-1.388,11.553
		c1.607-1.71,3.177-3.309,4.693-4.793c0.27-2.207,0.498-4.352,0.68-6.408c2.559-28.997-2.11-48.537-2.311-49.355l-1.043-4.264
		l-2.533,3.585c-6.068,8.59-11.402,17.027-16.109,25.239c-1.149,2.005-2.27,3.999-3.344,5.975
		c-15.9,29.25-23.748,55.242-27.615,74.138c-0.152,0.746-0.301,1.484-0.441,2.208c-0.014,0.071-0.026,0.14-0.04,0.211
		c-1.003-4.527-2.234-9.437-3.753-14.69c-3.944-13.644-9.805-29.562-18.51-46.865c-1.149-2.285-2.349-4.595-3.6-6.926
		C111.36,38.688,104.1,26.896,95.384,14.819l-2.57-3.561l-0.999,4.276c-0.176,0.751-3.935,17.268-2.358,42.32
		c1.449,1.752,2.935,3.604,4.451,5.562C92.073,43.669,93.749,28.272,94.879,21.014z"/>
	<path style="fill:#588F27;" d="M65.443,39.019c0.343,7.749,1.772,25.475,7.687,46.615c5.307,18.971,15.135,43.6,33.15,66.06H134.8
		C112.187,82.144,76.352,48.13,65.443,39.019z"/>
	<path style="fill:#F7E967;" d="M73.129,85.634c-5.914-21.14-7.344-38.866-7.687-46.615c10.909,9.111,46.744,43.125,69.357,112.675
		h4.196c-13.104-40.796-30.568-69.183-43.79-86.586c-0.436-0.573-0.868-1.134-1.299-1.69c-1.517-1.958-3.002-3.81-4.451-5.562
		C75.492,40.972,64.979,33.521,64.482,33.173l-3.104-2.172l-0.042,3.788c-0.002,0.226-0.156,22.913,7.907,51.799
		c5.22,18.703,14.742,42.789,31.947,65.105h5.09C88.264,129.233,78.436,104.604,73.129,85.634z"/>
	<path style="fill:#507F1D;" d="M191.395,16.859c-41.02,59.887-47.247,112.405-47.804,134.834h2.933
		c11.179-36.398,28.135-60.965,41.019-75.613c1.286-1.462,2.552-2.847,3.795-4.169c0.614-4.071,1.068-7.939,1.388-11.553
		C194.52,40.023,192.626,24.23,191.395,16.859z"/>
	<path style="fill:#588F27;" d="M210.051,94.787c4.891-17.422,5.518-32.218,5.518-38.681c-10.361,7.072-45.903,34.984-64.854,95.587
		h26.45C196.017,133.04,205.396,111.369,210.051,94.787z"/>
	<path style="fill:#F7E967;" d="M219.484,52.371l-0.206-3.168l-2.769,1.554c-0.438,0.245-8.97,5.102-20.479,16.361
		c-1.517,1.483-3.086,3.083-4.693,4.793c-1.243,1.322-2.509,2.707-3.795,4.169c-12.884,14.648-29.84,39.215-41.019,75.613h4.191
		c18.95-60.603,54.492-88.515,64.854-95.587c0.001,6.463-0.627,21.259-5.518,38.681c-4.655,16.582-14.034,38.253-32.886,56.906h5.59
		c17.643-18.613,26.629-39.669,31.186-55.967C220.647,71.753,219.535,53.151,219.484,52.371z"/>
	<path style="fill:#8C4646;" d="M100.856,256.217v24.701h79.198v-24.702c-10.708,9-24.517,14.43-39.6,14.43
		C125.373,270.645,111.564,265.217,100.856,256.217z"/>
	<path style="fill:#D96459;" d="M150.715,151.693h-4.191h-2.933h-4.053h-0.542H134.8H106.28h-5.09H84.016
		c-1.737,0-3.453-0.056-5.153-0.145v28.25v29.256c0,18.935,8.551,35.865,21.993,47.163c10.708,9,24.517,14.429,39.599,14.429
		c15.083,0,28.892-5.43,39.6-14.43c13.441-11.298,21.992-28.229,21.992-47.162v-29.256v-28.105h-19.291h-5.59H150.715z
		 M196.104,231.985c-0.293,0.293-0.677,0.439-1.061,0.439c-0.384,0-0.768-0.146-1.061-0.439l-13.233-13.232l-12.371,12.37
		c-0.586,0.586-1.535,0.586-2.121,0l-12.372-12.37l-12.37,12.37c-0.586,0.586-1.535,0.586-2.121,0l-12.37-12.37l-12.373,12.37
		c-0.586,0.586-1.535,0.586-2.121,0l-12.37-12.37l-13.233,13.232c-0.586,0.586-1.535,0.586-2.121,0
		c-0.586-0.586-0.586-1.535,0-2.121l14.294-14.293c0.586-0.586,1.535-0.586,2.121,0l12.37,12.37l12.373-12.37
		c0.586-0.586,1.535-0.586,2.121,0l12.37,12.37l12.37-12.37c0.586-0.586,1.535-0.586,2.121,0l12.372,12.37l12.371-12.37
		c0.586-0.586,1.535-0.586,2.121,0l14.294,14.293C196.69,230.45,196.69,231.399,196.104,231.985z M196.104,217.692
		c-0.293,0.293-0.677,0.439-1.061,0.439c-0.384,0-0.768-0.146-1.061-0.439l-13.233-13.233l-12.371,12.37
		c-0.586,0.586-1.535,0.586-2.121,0l-12.372-12.37l-12.37,12.37c-0.586,0.586-1.535,0.586-2.121,0l-12.37-12.37l-12.373,12.37
		c-0.586,0.586-1.535,0.586-2.121,0l-12.37-12.37l-13.233,13.233c-0.586,0.586-1.535,0.586-2.121,0
		c-0.586-0.586-0.586-1.535,0-2.121l14.294-14.294c0.586-0.586,1.535-0.586,2.121,0l12.37,12.37l12.373-12.37
		c0.586-0.586,1.535-0.586,2.121,0l12.37,12.37l12.37-12.37c0.586-0.586,1.535-0.586,2.121,0l12.372,12.37l12.371-12.37
		c0.586-0.586,1.535-0.586,2.121,0l14.294,14.294C196.69,216.157,196.69,217.106,196.104,217.692z M196.104,203.398
		c-0.293,0.293-0.677,0.439-1.061,0.439c-0.384,0-0.768-0.146-1.061-0.439l-13.233-13.233l-12.371,12.371
		c-0.586,0.586-1.535,0.586-2.121,0l-12.372-12.371l-12.37,12.371c-0.563,0.563-1.559,0.563-2.121,0l-12.37-12.371l-12.373,12.371
		c-0.586,0.586-1.535,0.586-2.121,0l-12.37-12.371l-13.233,13.233c-0.586,0.586-1.535,0.586-2.121,0
		c-0.586-0.586-0.586-1.535,0-2.121l14.294-14.294c0.281-0.281,0.663-0.439,1.061-0.439c0.397,0,0.779,0.158,1.061,0.439
		l12.37,12.371l12.373-12.371c0.586-0.586,1.535-0.586,2.121,0l12.37,12.371l12.37-12.371c0.563-0.563,1.559-0.563,2.121,0
		l12.372,12.371l12.371-12.371c0.586-0.586,1.535-0.586,2.121,0l14.294,14.294C196.69,201.863,196.69,202.813,196.104,203.398z
		 M181.81,172.69l14.294,14.293c0.586,0.586,0.586,1.535,0,2.121c-0.293,0.293-0.677,0.439-1.061,0.439
		c-0.384,0-0.768-0.146-1.061-0.439l-13.233-13.232l-12.371,12.37c-0.586,0.586-1.535,0.586-2.121,0l-12.372-12.37l-12.37,12.37
		c-0.586,0.586-1.535,0.586-2.121,0l-12.37-12.37l-12.373,12.37c-0.586,0.586-1.535,0.586-2.121,0l-12.37-12.37l-13.233,13.232
		c-0.586,0.586-1.535,0.586-2.121,0c-0.586-0.586-0.586-1.535,0-2.121l14.294-14.293c0.586-0.586,1.535-0.586,2.121,0l12.37,12.37
		l12.373-12.37c0.586-0.586,1.535-0.586,2.121,0l12.37,12.37l12.37-12.37c0.586-0.586,1.535-0.586,2.121,0l12.372,12.37
		l12.371-12.37C180.275,172.104,181.224,172.104,181.81,172.69z"/>
	<path style="fill:#8C4646;" d="M154.946,172.69c-0.586-0.586-1.535-0.586-2.121,0l-12.37,12.37l-12.37-12.37
		c-0.586-0.586-1.535-0.586-2.121,0l-12.373,12.37l-12.37-12.37c-0.586-0.586-1.535-0.586-2.121,0l-14.294,14.293
		c-0.586,0.586-0.586,1.535,0,2.121c0.586,0.586,1.535,0.586,2.121,0l13.233-13.232l12.37,12.37c0.586,0.586,1.535,0.586,2.121,0
		l12.373-12.37l12.37,12.37c0.586,0.586,1.535,0.586,2.121,0l12.37-12.37l12.372,12.37c0.586,0.586,1.535,0.586,2.121,0
		l12.371-12.37l13.233,13.232c0.293,0.293,0.677,0.439,1.061,0.439c0.384,0,0.768-0.146,1.061-0.439
		c0.586-0.586,0.586-1.535,0-2.121L181.81,172.69c-0.586-0.586-1.535-0.586-2.121,0l-12.371,12.37L154.946,172.69z"/>
	<path style="fill:#8C4646;" d="M181.81,186.983c-0.586-0.586-1.535-0.586-2.121,0l-12.371,12.371l-12.372-12.371
		c-0.563-0.563-1.559-0.563-2.121,0l-12.37,12.371l-12.37-12.371c-0.586-0.586-1.535-0.586-2.121,0l-12.373,12.371l-12.37-12.371
		c-0.281-0.281-0.663-0.439-1.061-0.439c-0.397,0-0.779,0.158-1.061,0.439l-14.294,14.294c-0.586,0.586-0.586,1.535,0,2.121
		c0.586,0.586,1.535,0.586,2.121,0l13.233-13.233l12.37,12.371c0.586,0.586,1.535,0.586,2.121,0l12.373-12.371l12.37,12.371
		c0.563,0.563,1.559,0.563,2.121,0l12.37-12.371l12.372,12.371c0.586,0.586,1.535,0.586,2.121,0l12.371-12.371l13.233,13.233
		c0.293,0.293,0.677,0.439,1.061,0.439c0.384,0,0.768-0.146,1.061-0.439c0.586-0.586,0.586-1.535,0-2.121L181.81,186.983z"/>
	<path style="fill:#8C4646;" d="M181.81,201.277c-0.586-0.586-1.535-0.586-2.121,0l-12.371,12.37l-12.372-12.37
		c-0.586-0.586-1.535-0.586-2.121,0l-12.37,12.37l-12.37-12.37c-0.586-0.586-1.535-0.586-2.121,0l-12.373,12.37l-12.37-12.37
		c-0.586-0.586-1.535-0.586-2.121,0l-14.294,14.294c-0.586,0.586-0.586,1.535,0,2.121c0.586,0.586,1.535,0.586,2.121,0
		l13.233-13.233l12.37,12.37c0.586,0.586,1.535,0.586,2.121,0l12.373-12.37l12.37,12.37c0.586,0.586,1.535,0.586,2.121,0
		l12.37-12.37l12.372,12.37c0.586,0.586,1.535,0.586,2.121,0l12.371-12.37l13.233,13.233c0.293,0.293,0.677,0.439,1.061,0.439
		c0.384,0,0.768-0.146,1.061-0.439c0.586-0.586,0.586-1.535,0-2.121L181.81,201.277z"/>
	<path style="fill:#8C4646;" d="M181.81,215.571c-0.586-0.586-1.535-0.586-2.121,0l-12.371,12.37l-12.372-12.37
		c-0.586-0.586-1.535-0.586-2.121,0l-12.37,12.37l-12.37-12.37c-0.586-0.586-1.535-0.586-2.121,0l-12.373,12.37l-12.37-12.37
		c-0.586-0.586-1.535-0.586-2.121,0l-14.294,14.293c-0.586,0.586-0.586,1.535,0,2.121c0.586,0.586,1.535,0.586,2.121,0
		l13.233-13.232l12.37,12.37c0.586,0.586,1.535,0.586,2.121,0l12.373-12.37l12.37,12.37c0.586,0.586,1.535,0.586,2.121,0
		l12.37-12.37l12.372,12.37c0.586,0.586,1.535,0.586,2.121,0l12.371-12.37l13.233,13.232c0.293,0.293,0.677,0.439,1.061,0.439
		c0.384,0,0.768-0.146,1.061-0.439c0.586-0.586,0.586-1.535,0-2.121L181.81,215.571z"/>
</g>
</svg>