<?xml version="1.0" encoding="iso-8859-1"?>
<!-- Uploaded to: SVG Repo, www.svgrepo.com, Generator: SVG Repo Mixer Tools -->
<!DOCTYPE svg PUBLIC "-//W3C//DTD SVG 1.1//EN" "http://www.w3.org/Graphics/SVG/1.1/DTD/svg11.dtd">
<svg version="1.1" id="Capa_1" xmlns="http://www.w3.org/2000/svg" xmlns:xlink="http://www.w3.org/1999/xlink" 
	 viewBox="0 0 288.606 288.606" xml:space="preserve">
<g>
	<path style="fill:#81AC8B;" d="M203.419,138.481c3.263,2.294,5.862,5.429,7.522,9.057c2.861-5.792,2.604-12.448-0.294-17.875
		c-5.516-0.172-10.98,1.995-14.879,6.147c0.94,1.948,1.76,3.963,2.477,6.026C199.805,140.493,201.541,139.357,203.419,138.481z"/>
	<path style="fill:#00A388;" d="M71.641,168.511c1.857,0.525,3.644,1.275,5.323,2.232c-0.291-0.406-0.572-0.824-0.839-1.254
		c-2.483-4-3.551-8.476-3.347-12.848c-3.135-0.934-6.473-1.014-9.644-0.22c-0.466,1.642-0.688,3.338-0.684,5.034
		c2.631,0.896,5.096,2.41,7.164,4.543C70.379,166.787,71.048,167.631,71.641,168.511z"/>
	<path style="fill:#9AC15D;" d="M160.668,123.036l5.061-5.35c0.381-0.401,1.014-0.417,1.414-0.04c0.401,0.38,0.419,1.013,0.04,1.414
		l-5.821,6.153c1.237,4.083,2.272,8.631,3.071,13.525l6.698-3.693c0.484-0.267,1.092-0.091,1.358,0.393
		c0.267,0.484,0.091,1.092-0.393,1.358l-7.339,4.046c0.857,5.852,1.382,12.157,1.501,18.755c0.114,0.318,0.224,0.637,0.323,0.957
		c1.543-0.829,3.172-1.48,4.856-1.952c1.675-3.616,4.429-6.63,7.858-8.615c5.761,3.334,9.641,9.56,9.641,16.695
		c0,0.298-0.017,0.592-0.03,0.887c0.742-0.877,1.57-1.678,2.475-2.387c-0.781-2.63-1.1-5.444-0.844-8.343
		c0.359-4.063,1.786-7.772,3.971-10.886c0.048-0.326,0.248-0.615,0.566-0.76c0.942-1.229,2.004-2.354,3.172-3.359
		c-0.717-2.063-1.537-4.079-2.477-6.026c-0.942-1.952-2.005-3.833-3.156-5.652l-3.503,2.476c-0.175,0.123-0.377,0.183-0.576,0.183
		c-0.314,0-0.623-0.147-0.818-0.423c-0.318-0.451-0.211-1.075,0.24-1.394l3.565-2.52c-3.064-4.486-6.753-8.51-10.945-11.946
		l-1.994,2.468c-0.198,0.245-0.487,0.372-0.778,0.372c-0.221,0-0.443-0.073-0.628-0.222c-0.43-0.347-0.497-0.977-0.149-1.406
		l1.977-2.447c-4.206-3.208-8.874-5.836-13.886-7.779l-0.684,1.862c-0.149,0.405-0.532,0.656-0.939,0.656
		c-0.115,0-0.231-0.02-0.345-0.062c-0.519-0.19-0.784-0.765-0.594-1.284l0.684-1.864c-2.516-0.874-5.11-1.58-7.773-2.096
		c-1.088,0.829-2.426,1.528-3.944,2.061C155.068,110.033,158.208,115.679,160.668,123.036z"/>
	<path style="fill:#9AC15D;" d="M93.098,145.164c0.515,0.199,0.771,0.778,0.572,1.293c-0.153,0.397-0.532,0.64-0.933,0.64
		c-0.12,0-0.242-0.022-0.36-0.068l-2.708-1.047c-0.421,1.601-0.766,3.232-1.048,4.885c1.821,1.22,3.484,2.717,4.917,4.485
		c1.291-1.594,2.863-2.951,4.648-3.984c2.043,1.182,3.807,2.788,5.188,4.689c0.013-0.054,0.021-0.107,0.034-0.161
		c1.894-7.764,7.767-13.509,14.921-15.608c2.302,2.205,4.084,4.896,5.229,7.86c0.216-2.331,0.486-4.601,0.801-6.811l-8.233-4.54
		c-0.483-0.267-0.66-0.875-0.392-1.358c0.266-0.483,0.873-0.659,1.358-0.393l7.583,4.181c0.76-4.773,1.749-9.213,2.926-13.232
		l-6.561-6.935c-0.379-0.401-0.362-1.034,0.04-1.414c0.4-0.378,1.034-0.361,1.413,0.04l5.783,6.113
		c2.496-7.725,5.724-13.657,9.392-17.007c-1.518-0.533-2.856-1.231-3.944-2.061c-2.965,0.575-5.852,1.37-8.632,2.387l0.577,1.573
		c0.19,0.519-0.076,1.093-0.594,1.284c-0.114,0.041-0.23,0.062-0.345,0.062c-0.407,0-0.79-0.251-0.939-0.656l-0.562-1.529
		c-4.928,2.003-9.508,4.678-13.633,7.911l1.602,1.982c0.347,0.43,0.28,1.059-0.149,1.406c-0.185,0.149-0.407,0.222-0.628,0.222
		c-0.292,0-0.581-0.127-0.778-0.372l-1.602-1.982c-4.095,3.448-7.698,7.459-10.684,11.922l2.912,2.058
		c0.451,0.319,0.558,0.943,0.24,1.394c-0.195,0.276-0.504,0.423-0.818,0.423c-0.199,0-0.401-0.06-0.576-0.183l-2.838-2.006
		c-0.947,1.53-1.822,3.109-2.624,4.731c-1.372,2.777-2.524,5.682-3.433,8.693L93.098,145.164z"/>
	<path style="fill:#A9CF54;" d="M124.882,158.184c0.963,0.218,1.906,0.518,2.826,0.881c1.396-2.401,3.198-4.557,5.346-6.344
		c3.598,1.335,6.817,3.536,9.384,6.378c0.033-5.462,1.955-10.735,5.378-14.913c8.072,1.344,15.23,6.829,18.317,15.04
		c0.046,0.124,0.081,0.249,0.126,0.373c-0.119-6.599-0.644-12.904-1.501-18.755l-1.944,1.072c-0.153,0.085-0.319,0.124-0.482,0.124
		c-0.353,0-0.694-0.186-0.877-0.517c-0.267-0.484-0.091-1.092,0.393-1.358l2.585-1.425c-0.8-4.894-1.834-9.442-3.071-13.525
		l-1.463,1.547c-0.197,0.208-0.461,0.313-0.727,0.313c-0.247,0-0.494-0.091-0.687-0.273c-0.401-0.38-0.419-1.013-0.039-1.414
		l2.224-2.351c-2.46-7.357-5.6-13.003-9.147-16.244c-2.042,0.716-4.402,1.132-6.927,1.132s-4.885-0.416-6.927-1.132
		c-3.668,3.351-6.896,9.283-9.392,17.007l1.502,1.587c0.379,0.401,0.362,1.034-0.04,1.414c-0.193,0.183-0.441,0.273-0.687,0.273
		c-0.265,0-0.53-0.105-0.727-0.313l-0.724-0.765c-1.177,4.019-2.166,8.459-2.926,13.232l1.7,0.937
		c0.483,0.267,0.66,0.875,0.393,1.358c-0.182,0.331-0.524,0.517-0.877,0.517c-0.163,0-0.329-0.04-0.482-0.124l-1.049-0.579
		c-0.315,2.21-0.585,4.481-0.801,6.811C124.763,151.272,125.257,154.698,124.882,158.184z"/>
	<path style="fill:#F2E5A2;" d="M163.148,109.975c0.114,0.041,0.23,0.062,0.345,0.062c0.407,0,0.79-0.251,0.939-0.656l0.684-1.862
		l2.969-8.088c0.19-0.519-0.076-1.093-0.594-1.284c-0.517-0.189-1.093,0.075-1.284,0.594l-2.969,8.087l-0.684,1.864
		C162.363,109.21,162.629,109.785,163.148,109.975z"/>
	<path style="fill:#F2E5A2;" d="M158.484,126.8c0.193,0.183,0.44,0.273,0.687,0.273c0.265,0,0.53-0.105,0.727-0.313l1.463-1.547
		l5.821-6.153c0.379-0.401,0.362-1.034-0.04-1.414c-0.4-0.377-1.033-0.362-1.414,0.04l-5.061,5.35l-2.224,2.351
		C158.065,125.788,158.082,126.42,158.484,126.8z"/>
	<path style="fill:#F2E5A2;" d="M161.454,141.523c0.182,0.331,0.524,0.517,0.877,0.517c0.163,0,0.329-0.04,0.482-0.124l1.944-1.072
		l7.339-4.046c0.483-0.267,0.66-0.875,0.393-1.358c-0.267-0.483-0.874-0.659-1.358-0.393l-6.698,3.693l-2.585,1.425
		C161.363,140.431,161.187,141.039,161.454,141.523z"/>
	<path style="fill:#F2E5A2;" d="M177.174,119.151c0.185,0.149,0.407,0.222,0.628,0.222c0.292,0,0.581-0.127,0.778-0.372l1.994-2.468
		l4.667-5.776c0.347-0.43,0.28-1.059-0.149-1.406c-0.429-0.347-1.059-0.28-1.406,0.149l-4.685,5.797l-1.977,2.447
		C176.677,118.175,176.744,118.804,177.174,119.151z"/>
	<path style="fill:#F2E5A2;" d="M187.714,132.393c0.195,0.276,0.504,0.423,0.818,0.423c0.199,0,0.401-0.06,0.576-0.183l3.503-2.476
		l5.153-3.642c0.451-0.319,0.558-0.943,0.24-1.394c-0.319-0.451-0.942-0.558-1.394-0.24l-5.091,3.598l-3.565,2.52
		C187.503,131.318,187.396,131.942,187.714,132.393z"/>
	<path style="fill:#F2E5A2;" d="M194.508,145.955c0.182-0.259,0.374-0.509,0.566-0.76
		C194.756,145.34,194.556,145.629,194.508,145.955z"/>
	<path style="fill:#81AC8B;" d="M147.815,144.186c-3.423,4.178-5.345,9.451-5.378,14.913c2.062,2.283,3.692,4.984,4.749,8.002
		c1.699-1.128,3.57-1.993,5.547-2.547c1.72,1.689,3.103,3.685,4.095,5.868c2.264-4.331,5.707-7.692,9.754-9.866
		c-0.099-0.32-0.21-0.639-0.323-0.957c-0.044-0.124-0.079-0.249-0.126-0.373C163.045,151.016,155.887,145.531,147.815,144.186z"/>
	<path style="fill:#425957;" d="M175.501,157.829c2.976,4.165,4.553,9.223,4.43,14.382c0.17-0.105,0.336-0.217,0.51-0.317
		c1.77,1.024,3.36,2.324,4.717,3.836c0.491-3.081,1.82-5.879,3.749-8.158c0.014-0.295,0.03-0.589,0.03-0.887
		c0-7.135-3.879-13.361-9.641-16.695c-3.43,1.985-6.184,4.999-7.858,8.615C172.764,158.233,174.122,157.966,175.501,157.829z"/>
	<path style="fill:#00A388;" d="M106.543,166.708c1.329,0.73,2.584,1.589,3.743,2.574c1.465-3.051,3.82-5.594,6.736-7.281
		c0.39,0.226,0.766,0.471,1.135,0.727c0.379-1.743,0.989-3.434,1.835-5.017c1.649-0.051,3.292,0.11,4.891,0.474
		c0.375-3.486-0.119-6.912-1.325-10.036c-1.144-2.963-2.926-5.655-5.229-7.86c-7.155,2.099-13.028,7.844-14.921,15.608
		c-0.013,0.054-0.021,0.107-0.034,0.161c2.007,2.763,3.197,6.156,3.197,9.832C106.57,166.164,106.556,166.436,106.543,166.708z"/>
	<path style="fill:#85C691;" d="M124.5,171.078c-0.026-4.315,1.129-8.44,3.208-12.013c-0.92-0.363-1.863-0.663-2.826-0.881
		c-1.598-0.363-3.242-0.525-4.891-0.474c-0.846,1.583-1.456,3.274-1.835,5.017C121.076,164.745,123.326,167.66,124.5,171.078z"/>
	<path style="fill:#425957;" d="M125.359,177.767c0.06,0.047,0.119,0.094,0.178,0.142c-0.057-0.187-0.105-0.378-0.158-0.567
		C125.372,177.483,125.369,177.626,125.359,177.767z"/>
	<path style="fill:#425957;" d="M114.231,199.032h0.316c-0.031-0.111-0.06-0.224-0.088-0.336
		C114.384,198.809,114.308,198.92,114.231,199.032z"/>
	<path style="fill:#425957;" d="M76.125,169.489c0.268,0.431,0.548,0.848,0.839,1.254c3.765,2.145,6.977,5.329,9.143,9.386
		c0.615-1.598,1.436-3.116,2.453-4.507c1.911,0.21,3.772,0.71,5.529,1.458c-2.665-2.967-4.288-6.888-4.288-11.19
		c0-3.995,1.403-7.657,3.736-10.537c-1.432-1.768-3.095-3.265-4.917-4.485c0.282-1.653,0.627-3.284,1.048-4.885l-7.178-2.774
		c-0.515-0.199-0.771-0.778-0.572-1.293c0.199-0.516,0.782-0.771,1.293-0.572l7.005,2.708c0.909-3.011,2.061-5.915,3.433-8.693
		c-3.646-2.89-8.197-4.368-12.785-4.225c-2.629,4.923-3.086,10.859-1.013,16.244c-1.463-0.247-2.952-0.353-4.444-0.307
		c-1.579,2.957-2.474,6.233-2.63,9.57C72.573,161.013,73.641,165.489,76.125,169.489z"/>
	<path style="fill:#425957;" d="M203.419,138.481c-1.877,0.876-3.614,2.012-5.173,3.355c-1.168,1.005-2.23,2.131-3.172,3.359
		c-0.192,0.25-0.384,0.501-0.566,0.76c-2.185,3.114-3.612,6.823-3.971,10.886c-0.256,2.899,0.063,5.713,0.844,8.343
		c0.616-0.482,1.263-0.926,1.944-1.32c1.963,1.136,3.67,2.663,5.026,4.467c2.778-5.32,7.334-9.177,12.6-11.17
		c0.231-0.966,0.534-1.927,0.934-2.873c0.217-0.514,0.463-1.007,0.721-1.491c-0.336-1.836-0.905-3.598-1.666-5.26
		C209.28,143.91,206.682,140.774,203.419,138.481z"/>
	<path style="fill:#00A388;" d="M210.951,157.161c1.948-0.737,3.991-1.224,6.078-1.431c2.687,3.76,4.232,8.249,4.416,12.882
		c0.609-0.917,1.303-1.795,2.097-2.614c1.351-1.393,2.874-2.514,4.498-3.38c0.209-0.407,0.408-0.822,0.589-1.25
		c2.62-6.196,1.537-13.028-2.242-18.038c-5.71,0.715-10.933,4.129-13.781,9.467c-0.258,0.483-0.504,0.977-0.721,1.491
		C211.486,155.234,211.182,156.195,210.951,157.161z"/>
	<path style="fill:#425957;" d="M241.026,161.026c-4.332-1.085-8.977-0.544-12.985,1.592c-1.625,0.866-3.148,1.987-4.498,3.38
		c-0.794,0.819-1.488,1.697-2.097,2.614c0.107,2.667-0.247,5.382-1.086,8.035c0.62-0.193,1.251-0.355,1.892-0.476
		c1.261,1.476,2.247,3.161,2.932,4.964c2.31-0.802,4.784-1.058,7.212-0.73c0.164,0.401,0.303,0.81,0.433,1.222
		c1.35-0.803,2.619-1.792,3.766-2.975C241.277,173.825,242.738,167.063,241.026,161.026z"/>
	<path style="fill:#425957;" d="M63.518,177.105c0.644-3.371,2.004-6.58,4.007-9.383c1.397,0.139,2.773,0.41,4.116,0.789
		c-0.593-0.879-1.263-1.724-2.027-2.512c-2.068-2.133-4.532-3.646-7.164-4.543c-3.327-1.134-6.92-1.28-10.319-0.429
		c-1.646,5.805-0.351,12.274,3.914,17.057C58.428,177.343,60.949,176.998,63.518,177.105z"/>
	<path style="fill:#00ADA7;" d="M70.82,199.032c-2.309-2.103-4.24-4.698-5.612-7.724c-2.097-4.626-2.575-9.568-1.69-14.204
		c-2.569-0.107-5.09,0.238-7.473,0.978c-3.444,1.069-6.597,2.952-9.157,5.502c1.988,7.42,7.766,13.61,15.716,15.749
		c0.759,0.204,1.52,0.354,2.279,0.475c-0.002-0.26-0.02-0.516-0.02-0.776H70.82z"/>
	<path style="fill:#81AC8B;" d="M86.458,194.97c-2.163-4.901-2.135-10.209-0.351-14.84c-2.166-4.058-5.379-7.241-9.143-9.386
		c-1.679-0.957-3.466-1.708-5.323-2.232c-1.343-0.379-2.719-0.65-4.116-0.789c-2.003,2.803-3.363,6.013-4.007,9.383
		c-0.885,4.636-0.408,9.578,1.69,14.204c1.372,3.026,3.303,5.621,5.612,7.724h16.779c0.143-0.414,0.276-0.831,0.396-1.252
		C87.417,196.898,86.897,195.965,86.458,194.97z"/>
	<path style="fill:#00A388;" d="M156.827,170.422c0.892,1.96,1.465,4.072,1.666,6.258c2.872,2.368,5.175,5.465,6.597,9.113
		c1.949-3.749,5.133-6.702,8.964-8.369c0.069,0.051,0.134,0.108,0.203,0.161c1.503-2.155,3.437-3.984,5.674-5.374
		c0.123-5.159-1.454-10.217-4.43-14.382c-1.379,0.137-2.737,0.404-4.063,0.775c-1.684,0.472-3.313,1.124-4.856,1.952
		C162.535,162.73,159.091,166.09,156.827,170.422z"/>
	<path style="fill:#81AC8B;" d="M210.951,157.161c-5.266,1.993-9.822,5.851-12.6,11.17c2.105,2.801,3.358,6.279,3.358,10.053
		c0,1.37-0.173,2.698-0.483,3.973c-3.702,0.629-7.188,2.587-9.668,5.79c-0.35,0.452-0.663,0.92-0.956,1.396
		c-1.796,2.921-2.517,6.251-2.228,9.489h14.262c0.421-0.43,0.827-0.882,1.204-1.37c3.361-4.34,4.055-9.894,2.349-14.71
		c1.944-0.655,4.001-0.924,6.047-0.786c2.111-2.633,4.96-4.536,8.123-5.519c0.839-2.653,1.192-5.368,1.086-8.035
		c-0.184-4.634-1.729-9.122-4.416-12.882C214.943,155.938,212.9,156.424,210.951,157.161z"/>
	<path style="fill:#99C4A1;" d="M147.185,167.101c-1.056-3.018-2.687-5.719-4.749-8.002c-2.566-2.843-5.786-5.043-9.384-6.378
		c-2.148,1.787-3.949,3.943-5.346,6.344c-2.079,3.573-3.234,7.698-3.208,12.013c0.587,1.707,0.907,3.537,0.907,5.443
		c0,0.276-0.015,0.548-0.028,0.82c0.053,0.189,0.101,0.381,0.158,0.567c2.083,1.689,3.774,3.816,4.95,6.226
		c1.551-3.558,4.093-6.608,7.305-8.769c0.674,0.331,1.322,0.706,1.953,1.107C141.216,172.533,143.865,169.306,147.185,167.101z"/>
	<path style="fill:#00ADA7;" d="M152.732,164.554c-1.977,0.554-3.848,1.418-5.547,2.547c-3.32,2.205-5.97,5.432-7.441,9.372
		c1.86,1.185,3.519,2.663,4.907,4.378c1.106-3.212,2.929-6.147,5.333-8.563c3.124,0.835,6.025,2.344,8.509,4.392
		c-0.201-2.186-0.774-4.297-1.666-6.258C155.835,168.239,154.452,166.244,152.732,164.554z"/>
	<path style="fill:#00ADA7;" d="M125.407,176.521c0-1.906-0.321-3.736-0.907-5.443c-1.174-3.418-3.424-6.333-6.343-8.351
		c-0.369-0.255-0.745-0.501-1.135-0.727c-2.916,1.687-5.271,4.23-6.736,7.281c3.341,2.838,5.888,6.68,7.115,11.233
		c0.208,0.772,0.36,1.546,0.484,2.319c1.869-2.345,4.287-4.212,7.041-5.41c0.148,0.11,0.288,0.229,0.433,0.343
		c0.01-0.141,0.014-0.284,0.021-0.426C125.392,177.069,125.407,176.797,125.407,176.521z"/>
	<path style="fill:#99C4A1;" d="M190.081,188.588c0,0.179-0.013,0.354-0.018,0.531c0.184,0.136,0.362,0.279,0.54,0.423
		c0.293-0.476,0.605-0.944,0.956-1.396c2.48-3.202,5.966-5.16,9.668-5.79c0.31-1.274,0.483-2.602,0.483-3.973
		c0-3.774-1.253-7.252-3.358-10.053c-1.356-1.805-3.063-3.331-5.026-4.467c-0.681,0.394-1.328,0.838-1.944,1.32
		c-0.905,0.708-1.733,1.51-2.475,2.387c-1.928,2.279-3.257,5.078-3.749,8.158C188.217,179.141,190.081,183.645,190.081,188.588z"/>
	<path style="fill:#81AC8B;" d="M101.516,164.68c1.757,0.47,3.442,1.158,5.026,2.028c0.013-0.272,0.028-0.544,0.028-0.818
		c0-3.676-1.19-7.069-3.197-9.832c-1.381-1.901-3.145-3.506-5.188-4.689c-1.786,1.033-3.357,2.39-4.648,3.984
		c-2.333,2.879-3.736,6.542-3.736,10.537c0,4.303,1.623,8.223,4.288,11.19c0.363,0.154,0.72,0.32,1.073,0.496
		C95.813,172.684,98.066,168.147,101.516,164.68z"/>
	<path style="fill:#99C4A1;" d="M212.237,182.166c0.345,0.023,0.69,0.058,1.034,0.104c2.025,4.966,1.424,10.847-2.097,15.392
		c-0.378,0.487-0.783,0.94-1.204,1.37h5.143c-0.918-4.315-0.009-8.987,2.904-12.748c1.912-2.468,4.422-4.194,7.167-5.147
		c-0.685-1.804-1.671-3.488-2.932-4.964c-0.641,0.12-1.272,0.283-1.892,0.476C217.197,177.631,214.348,179.533,212.237,182.166z"/>
	<path style="fill:#99C4A1;" d="M114.019,192.138c0.406-3.536,1.8-6.713,3.866-9.304c-0.123-0.773-0.276-1.546-0.484-2.319
		c-1.228-4.553-3.774-8.395-7.115-11.233c-1.159-0.984-2.415-1.844-3.743-2.574c-1.584-0.87-3.269-1.559-5.026-2.028
		c-3.451,3.468-5.704,8.005-6.354,12.896c3.914,1.954,7.2,5.222,9.103,9.538c1.719,3.897,2.046,8.05,1.215,11.918h8.752
		c0.077-0.112,0.153-0.223,0.228-0.336C113.933,196.611,113.759,194.401,114.019,192.138z"/>
	<path style="fill:#99C4A1;" d="M163.147,192.138c0.262-2.286,0.943-4.419,1.944-6.345c-1.422-3.647-3.725-6.745-6.597-9.113
		c-2.484-2.048-5.386-3.557-8.509-4.392c-2.404,2.416-4.227,5.351-5.333,8.563c2.538,3.135,4.175,7.05,4.47,11.381
		c0.16,2.357-0.09,4.646-0.688,6.8h15.242C163.08,196.85,162.873,194.523,163.147,192.138z"/>
	<path style="fill:#85C691;" d="M190.603,189.543c-0.178-0.144-0.356-0.288-0.54-0.423c0.005-0.178,0.018-0.353,0.018-0.531
		c0-4.943-1.864-9.448-4.924-12.859c-1.357-1.512-2.947-2.812-4.717-3.836c-0.173,0.101-0.34,0.212-0.51,0.317
		c-2.237,1.389-4.171,3.218-5.674,5.374c4.951,3.787,7.852,9.998,7.09,16.641c-0.194,1.692-0.614,3.302-1.224,4.807h8.252
		C188.086,195.794,188.807,192.464,190.603,189.543z"/>
	<path style="fill:#00ADA7;" d="M225.184,181.137c-2.745,0.953-5.255,2.679-7.167,5.147c-2.913,3.761-3.821,8.433-2.904,12.748
		h11.533c0,0.058-0.004,0.115-0.004,0.173c1.36-0.907,2.602-2.042,3.658-3.406c3.236-4.179,3.998-9.483,2.529-14.171
		c-0.129-0.412-0.269-0.821-0.433-1.222C229.967,180.079,227.493,180.335,225.184,181.137z"/>
	<path style="fill:#85C691;" d="M213.271,182.27c-0.344-0.046-0.689-0.081-1.034-0.104c-2.046-0.139-4.103,0.13-6.047,0.786
		c1.706,4.816,1.013,10.371-2.349,14.71c-0.377,0.487-0.783,0.94-1.204,1.37h7.333c0.421-0.43,0.827-0.882,1.204-1.37
		C214.695,193.117,215.295,187.237,213.271,182.27z"/>
	<path style="fill:#81AC8B;" d="M181.347,194.226c0.761-6.643-2.139-12.855-7.09-16.641c-0.068-0.052-0.133-0.109-0.203-0.161
		c-3.831,1.667-7.015,4.619-8.964,8.369c-1.001,1.927-1.682,4.06-1.944,6.345c-0.273,2.385-0.067,4.712,0.528,6.894h16.448
		C180.734,197.528,181.153,195.917,181.347,194.226z"/>
	<path style="fill:#81AC8B;" d="M128.845,193.608c-0.228-3.362,0.381-6.585,1.641-9.473c-1.176-2.41-2.867-4.538-4.95-6.226
		c-0.059-0.048-0.119-0.095-0.178-0.142c-0.145-0.114-0.285-0.233-0.433-0.343c-2.754,1.198-5.172,3.065-7.041,5.41
		c-2.066,2.591-3.46,5.768-3.866,9.304c-0.26,2.263-0.086,4.474,0.44,6.559c0.028,0.112,0.057,0.225,0.088,0.336h15.421
		C129.362,197.324,128.974,195.506,128.845,193.608z"/>
	<path style="fill:#00A388;" d="M149.121,192.232c-0.294-4.331-1.932-8.246-4.47-11.381c-1.388-1.715-3.047-3.193-4.907-4.378
		c-0.631-0.401-1.279-0.776-1.953-1.107c-3.212,2.162-5.753,5.211-7.305,8.769c-1.26,2.889-1.869,6.111-1.641,9.473
		c0.129,1.897,0.516,3.715,1.123,5.424h18.465C149.03,196.878,149.28,194.589,149.121,192.232z"/>
	<path style="fill:#00A388;" d="M104.265,187.114c-1.903-4.316-5.189-7.584-9.103-9.538c-0.353-0.176-0.71-0.342-1.073-0.496
		c-1.757-0.749-3.618-1.249-5.529-1.458c-1.017,1.392-1.837,2.91-2.453,4.507c-1.784,4.632-1.812,9.939,0.351,14.84
		c0.439,0.996,0.959,1.929,1.536,2.81c0.283,0.432,0.58,0.849,0.892,1.252h16.594C106.311,195.164,105.984,191.011,104.265,187.114z
		"/>
	<path style="fill:#425C50;" d="M112.215,272.637v15.969h67.081v-15.969c-10.221,4.665-21.572,7.285-33.541,7.285
		C133.786,279.922,122.436,277.302,112.215,272.637z"/>
	<path style="fill:#768A5E;" d="M78.747,244.354c8.301,12.249,19.881,22.081,33.468,28.283c10.221,4.665,21.571,7.285,33.54,7.285
		c11.969,0,23.32-2.62,33.541-7.285c13.865-6.329,25.63-16.447,33.963-29.045c-0.167,0.253-0.326,0.511-0.496,0.762H78.747z"/>
	<path style="fill:#768A5E;" d="M78.747,244.353c-0.165-0.244-0.32-0.495-0.482-0.741C78.427,243.858,78.582,244.109,78.747,244.353
		z"/>
	<path style="fill:#768A5E;" d="M215.113,199.032h-5.143h-7.333h-14.262h-8.252h-16.448h-15.242h-18.465h-15.421h-0.316h-8.752
		H88.885h-1.287H70.82h-5.955c0,0.26,0.017,0.517,0.02,0.776c0.146,15.427,4.609,29.815,12.242,42.026
		c-0.38-0.615-0.757-1.233-1.125-1.857h139.508c-0.368,0.626-0.746,1.246-1.127,1.863c7.734-12.372,12.227-26.976,12.26-42.634
		c0-0.058,0.004-0.115,0.004-0.173H215.113z M81.946,233.267l-7.855-7.854l7.855-7.855l7.854,7.855L81.946,233.267z
		 M103.216,233.267l-7.854-7.854l7.854-7.855l7.854,7.855L103.216,233.267z M124.486,233.267l-7.854-7.854l7.854-7.855l7.854,7.855
		L124.486,233.267z M145.756,233.267l-7.855-7.854l7.855-7.855l7.855,7.855L145.756,233.267z M167.025,233.267l-7.854-7.854
		l7.854-7.855l7.854,7.855L167.025,233.267z M188.295,233.267l-7.855-7.854l7.855-7.855l7.854,7.855L188.295,233.267z
		 M209.565,233.267l-7.855-7.854l7.855-7.855l7.855,7.855L209.565,233.267z M225.357,213.349H66.154
		c-0.259-1.446-0.479-2.905-0.66-4.376h160.522C225.836,210.444,225.615,211.902,225.357,213.349z"/>
	<path style="fill:#CCBE65;" d="M65.494,208.972c0.18,1.472,0.401,2.93,0.66,4.376h159.203c0.259-1.446,0.48-2.905,0.66-4.376
		H65.494z"/>
	<path style="fill:#CCBE65;" d="M76.001,239.977c0.367,0.625,0.744,1.242,1.125,1.857c0.37,0.599,0.752,1.19,1.139,1.778
		c0.162,0.246,0.317,0.497,0.482,0.741c0,0.001,0.001,0.001,0.001,0.001l0,0h134.016c0.17-0.251,0.329-0.509,0.496-0.762
		c0.381-0.58,0.758-1.162,1.123-1.752c0.381-0.617,0.759-1.237,1.127-1.863H76.001z"/>
	
		<rect x="76.392" y="219.859" transform="matrix(-0.7072 -0.7071 0.7071 -0.7072 -19.4867 442.7552)" style="fill:#CCBE65;" width="11.109" height="11.108"/>
	
		<rect x="97.662" y="219.859" transform="matrix(-0.7071 -0.7071 0.7071 -0.7071 16.8103 457.7892)" style="fill:#CCBE65;" width="11.108" height="11.108"/>
	
		<rect x="118.932" y="219.859" transform="matrix(-0.7071 -0.7071 0.7071 -0.7071 53.1131 472.8271)" style="fill:#CCBE65;" width="11.108" height="11.108"/>
	
		<rect x="140.201" y="219.859" transform="matrix(0.7071 -0.7071 0.7071 0.7071 -116.6985 169.0783)" style="fill:#CCBE65;" width="11.108" height="11.108"/>
	
		<rect x="161.471" y="219.859" transform="matrix(-0.7071 -0.7071 0.7071 -0.7071 125.7398 502.9088)" style="fill:#CCBE65;" width="11.108" height="11.108"/>
	
		<rect x="182.741" y="219.859" transform="matrix(-0.7071 -0.7071 0.7071 -0.7071 162.0503 517.949)" style="fill:#CCBE65;" width="11.108" height="11.108"/>
	
		<rect x="204.01" y="219.859" transform="matrix(-0.7072 -0.7071 0.7071 -0.7072 198.3797 532.9896)" style="fill:#CCBE65;" width="11.109" height="11.108"/>
	<path style="fill:#87AA49;" d="M144.593,107.924c2.524,0,4.885-0.416,6.927-1.132c1.518-0.533,2.856-1.231,3.944-2.061
		c1.908-1.454,3.056-3.294,3.056-5.301c0-3.128-2.781-5.854-6.909-7.328c-1.603,2.131-4.145,3.516-7.018,3.516
		c-2.872,0-5.415-1.385-7.018-3.516c-4.128,1.474-6.909,4.2-6.909,7.328c0,2.007,1.147,3.848,3.056,5.301
		c1.088,0.829,2.426,1.528,3.944,2.061C139.708,107.508,142.069,107.924,144.593,107.924z"/>
	<path style="fill:#F2594B;" d="M144.593,95.619c2.873,0,5.415-1.385,7.018-3.516c1.105-1.469,1.768-3.29,1.768-5.27
		c0-4.188-2.932-3.74-6.854-3.538v6.102c0,1.067-0.865,1.932-1.932,1.932c-1.067,0-1.932-0.865-1.932-1.932v-6.102
		c-3.921-0.202-6.854-0.65-6.854,3.538c0,1.98,0.663,3.8,1.768,5.27C139.178,94.234,141.721,95.619,144.593,95.619z"/>
	<path style="fill:#F2E5A2;" d="M124.728,110.037c0.115,0,0.231-0.02,0.345-0.062c0.519-0.19,0.784-0.765,0.594-1.284l-0.577-1.573
		l-3.076-8.378c-0.19-0.519-0.764-0.782-1.284-0.594c-0.519,0.19-0.784,0.765-0.594,1.284l3.091,8.421l0.562,1.529
		C123.938,109.786,124.32,110.037,124.728,110.037z"/>
	<path style="fill:#F2E5A2;" d="M129.049,127.074c0.247,0,0.494-0.091,0.687-0.273c0.401-0.38,0.419-1.013,0.04-1.414l-1.502-1.587
		l-5.783-6.113c-0.38-0.401-1.013-0.418-1.413-0.04c-0.401,0.38-0.419,1.013-0.04,1.414l6.561,6.935l0.724,0.765
		C128.52,126.969,128.784,127.074,129.049,127.074z"/>
	<path style="fill:#F2E5A2;" d="M125.889,142.04c0.353,0,0.694-0.186,0.877-0.517c0.267-0.484,0.091-1.092-0.393-1.358l-1.7-0.937
		l-7.583-4.181c-0.485-0.267-1.092-0.091-1.358,0.393c-0.267,0.484-0.091,1.092,0.392,1.358l8.233,4.54l1.049,0.579
		C125.561,142,125.726,142.04,125.889,142.04z"/>
	<path style="fill:#F2E5A2;" d="M110.419,119.373c0.221,0,0.443-0.073,0.628-0.222c0.43-0.347,0.497-0.977,0.149-1.406l-1.602-1.982
		l-5.06-6.262c-0.347-0.43-0.977-0.497-1.406-0.149c-0.43,0.347-0.497,0.977-0.149,1.406l5.06,6.262l1.602,1.982
		C109.838,119.247,110.127,119.373,110.419,119.373z"/>
	<path style="fill:#F2E5A2;" d="M99.688,132.816c0.314,0,0.623-0.147,0.818-0.423c0.318-0.451,0.211-1.075-0.24-1.394l-2.912-2.058
		l-5.745-4.06c-0.451-0.318-1.075-0.211-1.394,0.24c-0.318,0.451-0.212,1.075,0.24,1.394l5.818,4.111l2.838,2.006
		C99.287,132.757,99.489,132.816,99.688,132.816z"/>
	<path style="fill:#F2E5A2;" d="M92.737,147.098c0.401,0,0.779-0.243,0.933-0.64c0.199-0.515-0.057-1.094-0.572-1.293l-2.881-1.113
		l-7.005-2.708c-0.511-0.199-1.094,0.057-1.293,0.572c-0.199,0.515,0.057,1.094,0.572,1.293l7.178,2.774l2.708,1.047
		C92.495,147.076,92.617,147.098,92.737,147.098z"/>
	<path style="fill:#A9CF54;" d="M144.593,91.328c1.066,0,1.932-0.865,1.932-1.932v-6.102V45.639
		c-0.506,2.178-1.184,3.522-1.932,3.522s-1.426-1.344-1.932-3.522v37.656v6.102C142.661,90.463,143.526,91.328,144.593,91.328z"/>
	<path style="fill:#F7E967;" d="M144.593,49.161c0.748,0,1.426-1.344,1.932-3.522c0.552-2.375,0.899-5.745,0.899-9.495
		c0-1.903-0.091-3.706-0.25-5.335c1.039,1.265,2.249,2.604,3.595,3.95c5.083,5.083,10.1,8.309,11.206,7.204
		c1.104-1.105-2.121-6.123-7.204-11.206c-1.346-1.346-2.684-2.556-3.949-3.595c1.629,0.16,3.432,0.25,5.335,0.25
		c7.188,0,13.017-1.268,13.017-2.831s-5.828-2.83-13.017-2.83c-1.903,0-3.706,0.091-5.335,0.25c1.265-1.039,2.604-2.25,3.95-3.595
		c5.083-5.083,8.308-10.1,7.204-11.206c-1.106-1.105-6.124,2.12-11.206,7.204c-1.346,1.346-2.556,2.685-3.595,3.95
		c0.16-1.629,0.25-3.432,0.25-5.335c0-7.189-1.268-13.017-2.831-13.017c-1.563,0-2.831,5.828-2.831,13.017
		c0,1.902,0.091,3.704,0.25,5.333c-1.039-1.265-2.249-2.603-3.594-3.948c-5.084-5.083-10.101-8.309-11.207-7.204
		c-1.104,1.106,2.121,6.123,7.204,11.206c1.346,1.346,2.685,2.556,3.95,3.595c-1.63-0.16-3.432-0.25-5.335-0.25
		c-7.188,0-13.017,1.267-13.017,2.83s5.828,2.831,13.017,2.831c1.903,0,3.706-0.091,5.335-0.25c-1.265,1.039-2.604,2.25-3.949,3.595
		c-5.083,5.083-8.308,10.101-7.204,11.206c1.105,1.105,6.123-2.121,11.207-7.204c1.345-1.345,2.555-2.684,3.594-3.948
		c-0.16,1.629-0.25,3.431-0.25,5.334c0,3.75,0.347,7.12,0.899,9.495C143.167,47.817,143.845,49.161,144.593,49.161z"/>
</g>
</svg>